<?xml version="1.0" encoding="UTF-8"?>
<svg id="a" data-name="Layer 1" xmlns="http://www.w3.org/2000/svg" viewBox="0 0 480 480">
  <g id="b" data-name="PhqfEV.tif">
    <g>
      <path d="M480,0v480H0V0h480ZM284.06,25.01c-56.64-12.21-114.98-1.22-161.33,33.8-9.09,6.86-28.77,19.97-18.76,32.72s19.96-1.26,27.12-7.04c63.58-51.32,149.44-52.91,214.46-2.73,8.61,6.64,17.73,21.35,29.57,11.2,13.57-11.63-5.03-25.12-13.85-32.09-21.96-17.36-49.85-29.98-77.21-35.87ZM307.97,93.36c-48.68-27.14-113.72-22.41-156,14.36-7.69,6.69-18.35,17.01-5.37,25.94,11.33,7.8,19.49-6.19,27.42-11.85,37.08-26.47,92.43-27.25,130.2-1.76,8.73,5.89,23.7,26.39,33.55,9.19,7.85-13.7-19.67-30.24-29.8-35.89ZM255.05,132.71c-22.11-3.65-41.32.38-60.01,12.45-8.43,5.44-19.6,13.53-11.01,24.61,10.17,13.12,20.57-3.35,28.86-7.68,16.52-8.63,39.77-8.17,55.88,1.15,8.21,4.75,19.99,19.71,28.77,5.69,11.23-17.93-29.63-34.09-42.48-36.21ZM244.01,227.1c-1.11-1.44.87-31.22-.02-36.28s-6.58-4.64-7.47-.43c-1.07,5.06.84,34.93-.96,36.97-.21.24-5.72,2.16-6.02,2.05-.37-.14-4-4.78-5.22-5.81-2.32-1.95-13.02-11.33-14.72-11.97-4.55-1.71-6.96,2.18-4.28,6.15,2.1,3.12,17.3,13.21,18.01,17.16.1.58-3,5.5-3.39,7.7-1.38,7.74,1.71,12.87,6.68,18.36l-8.15,11.52c-14.66-9.03-29.3-18.56-44.4-26.81-8.7-4.76-18.5-9.85-27.4-14.23-14.15-6.97-51.96-26.93-66.07-15.78-8.69,6.86-.08,20.52,5.33,26.88,24.16,28.43,76.96,38.73,112.4,42.6,2.62.29,17.39.3,18.02.94.12.13.2,3.09-.46,3.52l-50.44,22.62-3.33,4.2,7.87,57.91c-.63,3.2-24.51,18.81-27.09,23.53-3.24,5.94,1.14,9.4,7.07,7.54,1.76-.55,26.85-21.51,28.45-23.53,3.56-4.5,2.17-6.83,1.8-12.12-.46-6.63-8.26-47.33-6.91-49.42s38.98-15.78,43.4-20.1c1.78-1.36,3.87,4.82,3.84,5.31-.15,2.26-30.48,25.45-32.93,30.26-.8,2.25-.05,4.38.31,6.57,2.75,17.07,11.34,35.82,14.08,53.23l-35.69,43.46c-3.04,4.81,1.04,9.68,6.28,7.68l40.23-48.27c1.21-2.56-.29-5.74-.84-8.52-3.26-16.63-9.99-33.55-13.45-50.25l27.4-24.1c.77.5.64.81.67,1.57.14,3.47-3.33,15.74-3.73,21.12-1.2,16.02,1.62,50.34,11.6,63.36,10.58,13.8,17.28-12.67,19.09-20.02,6.51-26.51,2.88-38.22.27-63.49-.06-.59-.55-2.78.66-2.54l27.42,24.12c-4.24,19.5-11.5,38.5-14.66,58.14,5.84,6.14,37.12,48.12,41.67,49.22s8.07-2.99,6.05-7.23l-36.75-44.05,14.79-54.81-.1-5.28c-2.47-4.81-32.8-27.52-33.08-29.73-.12-.98,2.07-6.18,3.45-5.77l43.85,20.13-7.23,57.57c.6,2.81,29.28,27.6,31.91,28.03,3.98.65,7.12-.95,6.78-5.34-6.33-10.49-19.5-16.88-28.06-25.83l7.71-58.24-3.54-4.45-49.84-22.74c-.97-.29-.9-3.09-.75-3.24.79-.79,19.01-1.05,22.24-1.41,31.44-3.53,104.98-18.81,115.57-54.42,8.88-29.85-33.96-14.38-46.8-8.87-32.39,13.9-63.26,32.48-93.12,50.94l-7.73-10.85c2.62-4.77,6.25-7.54,6.57-13.58.29-5.36-4.25-12.77-4.16-13.48.07-.56,6.48-7.66,7.41-8.52,2.74-2.54,13-7.72,12.1-12.02-.48-2.31-2.98-3.06-5.07-2.5-1.21.32-14.12,10.86-16.39,12.65-.95.75-3.8,4.38-4.08,4.5-.36.17-6.44-1.2-6.65-1.47Z" style="fill: #fefeff;"/>
      <path d="M244.01,227.1c.21.27,6.28,1.64,6.65,1.47.28-.13,3.12-3.75,4.08-4.5,2.27-1.79,15.17-12.33,16.39-12.65,2.09-.56,4.59.2,5.07,2.5.9,4.29-9.36,9.47-12.1,12.02-.93.86-7.34,7.96-7.41,8.52-.09.71,4.45,8.12,4.16,13.48-.33,6.03-3.96,8.81-6.57,13.58l7.73,10.85c29.86-18.46,60.73-37.03,93.12-50.94,12.84-5.51,55.68-20.98,46.8,8.87-10.6,35.61-84.13,50.89-115.57,54.42-3.23.36-21.45.63-22.24,1.41-.15.15-.23,2.94.75,3.24l49.84,22.74,3.54,4.45-7.71,58.24c8.56,8.96,21.73,15.35,28.06,25.83.34,4.4-2.79,6-6.78,5.34-2.63-.43-31.31-25.22-31.91-28.03l7.23-57.57-43.85-20.13c-1.38-.4-3.57,4.79-3.45,5.77.28,2.21,30.62,24.92,33.08,29.73l.1,5.28-14.79,54.81,36.75,44.05c2.02,4.24-1.55,8.31-6.05,7.23s-35.83-43.08-41.67-49.22c3.16-19.65,10.42-38.64,14.66-58.14l-27.42-24.12c-1.21-.25-.72,1.95-.66,2.54,2.62,25.27,6.24,36.98-.27,63.49-1.81,7.36-8.52,33.82-19.09,20.02-9.98-13.02-12.8-47.34-11.6-63.36.4-5.38,3.87-17.65,3.73-21.12-.03-.76.1-1.06-.67-1.57l-27.4,24.1c3.46,16.71,10.19,33.62,13.45,50.25.54,2.78,2.05,5.96.84,8.52l-40.23,48.27c-5.24,2-9.33-2.87-6.28-7.68l35.69-43.46c-2.74-17.41-11.33-36.16-14.08-53.23-.35-2.2-1.11-4.32-.31-6.57,2.45-4.81,32.77-28,32.93-30.26.03-.49-2.06-6.68-3.84-5.31-4.41,4.32-42.1,18.09-43.4,20.1s6.45,42.79,6.91,49.42c.36,5.29,1.76,7.61-1.8,12.12-1.6,2.02-26.69,22.98-28.45,23.53-5.93,1.86-10.31-1.6-7.07-7.54,2.58-4.72,26.45-20.32,27.09-23.53l-7.87-57.91,3.33-4.2,50.44-22.62c.66-.43.59-3.39.46-3.52-.64-.64-15.4-.66-18.02-.94-35.45-3.87-88.24-14.18-112.4-42.6-5.41-6.36-14.02-20.02-5.33-26.88,14.12-11.15,51.92,8.81,66.07,15.78,8.9,4.38,18.7,9.47,27.4,14.23,15.09,8.25,29.74,17.78,44.4,26.81l8.15-11.52c-4.97-5.48-8.06-10.62-6.68-18.36.39-2.19,3.49-7.11,3.39-7.7-.7-3.95-15.9-14.04-18.01-17.16-2.68-3.97-.26-7.87,4.28-6.15,1.7.64,12.4,10.03,14.72,11.97,1.23,1.03,4.85,5.67,5.22,5.81.3.11,5.81-1.81,6.02-2.05,1.81-2.04-.11-31.91.96-36.97.89-4.21,6.62-4.37,7.47.43.89,5.06-1.09,34.84.02,36.28Z" style="fill: #1e1f57;"/>
      <path d="M284.06,25.01c27.36,5.9,55.25,18.51,77.21,35.87,8.81,6.97,27.42,20.45,13.85,32.09-11.84,10.15-20.97-4.56-29.57-11.2-65.01-50.19-150.88-48.59-214.46,2.73-7.16,5.78-16.91,20.06-27.12,7.04s9.68-25.86,18.76-32.72c46.35-35.02,104.69-46.01,161.33-33.8Z" style="fill: #1e1f57;"/>
      <path d="M307.97,93.36c10.13,5.65,37.65,22.18,29.8,35.89-9.85,17.19-24.82-3.3-33.55-9.19-37.77-25.49-93.12-24.7-130.2,1.76-7.93,5.66-16.08,19.64-27.42,11.85-12.98-8.93-2.32-19.25,5.37-25.94,42.28-36.77,107.32-41.5,156-14.36Z" style="fill: #1e1f57;"/>
      <path d="M255.05,132.71c12.85,2.12,53.71,18.28,42.48,36.21-8.78,14.02-20.56-.94-28.77-5.69-16.11-9.32-39.36-9.77-55.88-1.15-8.29,4.33-18.68,20.8-28.86,7.68-8.59-11.08,2.58-19.17,11.01-24.61,18.69-12.06,37.9-16.1,60.01-12.45Z" style="fill: #1e1f57;"/>
    </g>
  </g>
</svg>